<?xml version="1.0" encoding="utf-8"?>
<!-- Generator: Adobe Illustrator 19.0.0, SVG Export Plug-In . SVG Version: 6.00 Build 0)  -->
<svg version="1.1" id="Layer_1" xmlns="http://www.w3.org/2000/svg" xmlns:xlink="http://www.w3.org/1999/xlink" x="0px" y="0px"
	 viewBox="-277 368.3 56.7 56.7" style="enable-background:new -277 368.3 56.7 56.7;" xml:space="preserve">
<style type="text/css">
	.st0{fill:none;}
	.st1{fill:#FFFFFF;}
</style>
<g>
	<path class="st0" d="M-248.8,406.7c4.8,0,8.7-3.9,8.7-8.7c0-1.9-0.6-3.7-1.7-5.1c-1.6-2.2-4.2-3.6-7.1-3.6c-2.9,0-5.5,1.4-7.1,3.6
		c-1,1.4-1.6,3.2-1.7,5.1C-257.5,402.7-253.6,406.7-248.8,406.7z"/>
	<path class="st0" d="M-235.2,397.9c0,7.5-6.1,13.6-13.6,13.6c-7.5,0-13.6-6.1-13.6-13.6c0-1.8,0.4-3.5,1-5.1h-7.4v20.3
		c0,2.6,2.1,4.8,4.8,4.8h30.4c2.6,0,4.8-2.1,4.8-4.8v-20.3h-7.4C-235.6,394.4-235.2,396.1-235.2,397.9z"/>
	<polygon class="st0" points="-229.7,387.3 -229.7,379.9 -229.7,378.8 -230.8,378.9 -238.1,378.9 -238.1,387.3 	"/>
	<path class="st1" d="M-233.6,373.1H-264c-5.3,0-9.6,4.3-9.6,9.6v10.1v20.3c0,5.3,4.3,9.6,9.6,9.6h30.4c5.3,0,9.6-4.3,9.6-9.6v-20.3
		v-10.1C-224,377.4-228.3,373.1-233.6,373.1z M-230.8,378.9l1.1,0v1.1v7.3l-8.4,0l0-8.4L-230.8,378.9z M-255.9,392.8
		c1.6-2.2,4.2-3.6,7.1-3.6c2.9,0,5.5,1.4,7.1,3.6c1,1.4,1.7,3.2,1.7,5.1c0,4.8-3.9,8.7-8.7,8.7c-4.8,0-8.7-3.9-8.7-8.7
		C-257.5,396-256.9,394.3-255.9,392.8z M-228.8,413.1c0,2.6-2.1,4.8-4.8,4.8H-264c-2.6,0-4.8-2.1-4.8-4.8v-20.3h7.4
		c-0.6,1.6-1,3.3-1,5.1c0,7.5,6.1,13.6,13.6,13.6c7.5,0,13.6-6.1,13.6-13.6c0-1.8-0.4-3.5-1-5.1h7.4V413.1z"/>
</g>
</svg>
