<?xml version="1.0" encoding="utf-8"?>
<!-- Generator: Adobe Illustrator 19.0.0, SVG Export Plug-In . SVG Version: 6.00 Build 0)  -->
<svg version="1.1" id="Layer_1" xmlns="http://www.w3.org/2000/svg" xmlns:xlink="http://www.w3.org/1999/xlink" x="0px" y="0px"
	 viewBox="0 0 60 72" style="enable-background:new 0 0 60 72;" xml:space="preserve">
<style type="text/css">
	.st0{fill:#FFFFFF;}
</style>
<g>
	<path class="st0" d="M50.8,52.7h-4l0-2.3c0-1,0.8-1.9,1.9-1.9h0.3c1,0,1.9,0.8,1.9,1.9L50.8,52.7z M35.9,47.7c-1,0-1.8,0.7-1.8,1.5
		v11.2c0,0.8,0.8,1.5,1.8,1.5c1,0,1.8-0.7,1.8-1.5V49.2C37.8,48.4,36.9,47.7,35.9,47.7L35.9,47.7z M60,41.5v21.2
		c0,5.1-4.4,9.3-9.8,9.3H9.8C4.4,72,0,67.8,0,62.7V41.5c0-5.1,4.4-9.3,9.8-9.3h40.4C55.6,32.2,60,36.4,60,41.5L60,41.5z M12.5,65
		V42.7h5v-3.3l-13.3,0v3.3l4.2,0V65H12.5z M27.5,46h-4.2V58c0,1.7,0.1,2.6,0,2.9c-0.3,0.9-1.9,1.9-2.5,0.1c-0.1-0.3,0-1.3,0-2.9
		l0-12h-4.1l0,11.8c0,1.8,0,3.2,0,3.8c0.1,1.1,0.1,2.4,1.1,3.1c1.9,1.4,5.5-0.2,6.4-2.1l0,2.5l3.4,0L27.5,46L27.5,46z M40.9,59.7
		l0-9.9c0-3.8-2.8-6.1-6.7-3l0-7.4l-4.2,0l0,25.5l3.4-0.1l0.3-1.6C38.1,67.3,40.9,64.5,40.9,59.7L40.9,59.7z M53.9,58.4l-3.1,0
		c0,0.1,0,0.3,0,0.4v1.7c0,0.9-0.8,1.7-1.7,1.7h-0.6c-0.9,0-1.7-0.8-1.7-1.7V56h7.2v-2.7c0-2-0.1-3.9-0.2-5.1
		c-0.5-3.6-5.5-4.1-8-2.3c-0.8,0.6-1.4,1.3-1.7,2.4c-0.4,1-0.5,2.4-0.5,4.2v5.9C43.4,68.2,55.3,66.8,53.9,58.4L53.9,58.4z
		 M37.9,26.2c0.2,0.5,0.5,0.9,1,1.3c0.4,0.3,1,0.5,1.7,0.5c0.6,0,1.1-0.2,1.6-0.5c0.5-0.3,0.9-0.8,1.2-1.5l-0.1,1.6h4.7V7.8h-3.7
		v15.4c0,0.8-0.7,1.5-1.5,1.5c-0.8,0-1.5-0.7-1.5-1.5V7.8h-3.8v13.3c0,1.7,0,2.8,0.1,3.4C37.5,25.1,37.7,25.7,37.9,26.2L37.9,26.2z
		 M23.8,15c0-1.9,0.2-3.4,0.5-4.5C24.6,9.5,25.1,8.6,26,8c0.8-0.6,1.9-1,3.2-1c1.1,0,2,0.2,2.8,0.6c0.8,0.4,1.4,1,1.8,1.6
		c0.4,0.7,0.7,1.4,0.9,2.1c0.2,0.7,0.2,1.8,0.2,3.2v5c0,1.8-0.1,3.2-0.2,4c-0.1,0.9-0.4,1.7-0.9,2.4c-0.5,0.7-1.1,1.3-1.8,1.6
		c-0.7,0.4-1.6,0.5-2.5,0.5c-1.1,0-2-0.1-2.7-0.5c-0.7-0.3-1.3-0.8-1.7-1.4c-0.4-0.6-0.7-1.4-0.9-2.2c-0.2-0.9-0.3-2.2-0.3-3.9V15z
		 M27.4,22.9c0,1.1,0.8,2,1.9,2c1,0,1.8-0.9,1.8-2V12.3c0-1.1-0.8-2-1.8-2c-1,0-1.9,0.9-1.9,2V22.9z M14.5,28.2h4.4l0-15.2l5.2-13
		h-4.8l-2.8,9.6L13.8,0H9l5.5,13L14.5,28.2z M14.5,28.2"/>
</g>
</svg>
