<?xml version="1.0" encoding="utf-8"?>
<!-- Generator: Adobe Illustrator 15.0.0, SVG Export Plug-In  -->
<!DOCTYPE svg PUBLIC "-//W3C//DTD SVG 1.1//EN" "http://www.w3.org/Graphics/SVG/1.1/DTD/svg11.dtd" [
	<!ENTITY ns_flows "http://ns.adobe.com/Flows/1.0/">
]>
<svg version="1.1"
	 xmlns="http://www.w3.org/2000/svg" xmlns:xlink="http://www.w3.org/1999/xlink" xmlns:a="http://ns.adobe.com/AdobeSVGViewerExtensions/3.0/"
	 x="0px" y="0px" width="204px" height="94px" viewBox="0 0 204 94" enable-background="new 0 0 204 94" xml:space="preserve">
<defs>
</defs>
<path fill="#F5866C" d="M39.628,35.745c-2.431-0.505-4.064-2.751-4.403-4.401c0.268-3.508,4.344-5.146,5.03-8.807
	c3.612-19.255-27.976-14.769-18.869,3.774C27.663,39.088,46.973,53.52,53.7,63.692c2.815-3.185,4.979-8.32,6.688-11.592
	c3.013,0.127,4.909,0.94,6.916,2.516c-1.256,6.082-4.153,10.52-6.916,15.096c3.22,6.004,5.873,6.74,10.061,17.611
	c-1.372,1.984-5.821,2.135-8.806,1.258c-2.349-3.313-4.164-7.156-6.919-10.064C37.858,96.257-0.167,89.747,0,62.792
	c0.082-13.057,8.035-19.642,16.982-25.159c-4.074-5.42-8.048-10.116-7.549-18.871C10.457,0.825,36.492-6.852,47.176,7.44
	C53.646,16.093,50.666,31.789,39.628,35.745z M22.645,44.55c-4.637,4.177-10.117,7.558-11.322,13.839
	c-4.098,21.377,25.811,26.297,35.854,12.58C39.361,61.8,31.275,52.903,22.645,44.55z"/>
<path fill="#F5866C" d="M82.688,85.569c0,1.945-1.581,3.522-3.521,3.522c-1.947,0-3.522-1.577-3.522-3.522s1.575-3.521,3.522-3.521
	C81.106,82.048,82.688,83.624,82.688,85.569z"/>
<path d="M105.985,79.573c0.191,0,0.371,0.039,0.548,0.111c0.172,0.073,0.319,0.176,0.452,0.299c0.127,0.127,0.229,0.272,0.304,0.445
	c0.075,0.17,0.112,0.35,0.112,0.541c0,0.194-0.037,0.381-0.112,0.551c-0.074,0.172-0.177,0.324-0.304,0.453
	c-0.133,0.131-0.278,0.231-0.45,0.307c-0.17,0.074-0.353,0.111-0.543,0.111h-0.683c-0.022,0-0.037,0.012-0.037,0.037v1.52
	c0,0.021-0.01,0.041-0.028,0.061c-0.021,0.02-0.041,0.029-0.063,0.029h-0.586c-0.025,0-0.045-0.01-0.063-0.029
	c-0.016-0.02-0.025-0.039-0.025-0.061v-4.285c0-0.021,0.01-0.041,0.025-0.061c0.018-0.021,0.037-0.029,0.063-0.029H105.985
	L105.985,79.573z M105.926,81.671c0.096,0,0.184-0.021,0.27-0.055c0.087-0.037,0.158-0.087,0.222-0.15
	c0.065-0.063,0.117-0.139,0.153-0.225c0.039-0.082,0.06-0.179,0.06-0.279c0-0.094-0.021-0.181-0.06-0.262
	c-0.036-0.08-0.088-0.147-0.153-0.207c-0.063-0.058-0.135-0.104-0.222-0.138c-0.086-0.035-0.174-0.053-0.27-0.053h-0.617
	c-0.022,0-0.037,0.014-0.037,0.039v1.289c0,0.025,0.015,0.039,0.037,0.039L105.926,81.671L105.926,81.671z"/>
<path d="M112.635,83.354c0.016,0.021,0.027,0.043,0.027,0.063v0.528c0,0.021-0.012,0.041-0.027,0.062
	c-0.015,0.021-0.039,0.029-0.063,0.029h-2.488c-0.025,0-0.045-0.011-0.064-0.029c-0.018-0.021-0.024-0.039-0.024-0.062v-4.284
	c0-0.021,0.008-0.041,0.024-0.062c0.021-0.02,0.039-0.029,0.064-0.029h0.588c0.021,0,0.039,0.011,0.063,0.029
	c0.019,0.021,0.027,0.039,0.027,0.062v3.62c0,0.025,0.01,0.037,0.037,0.037h1.773C112.596,83.321,112.621,83.333,112.635,83.354z"/>
<path d="M119.356,83.915c0.017,0.035,0.013,0.063-0.006,0.088c-0.018,0.023-0.043,0.035-0.076,0.035h-0.561
	c-0.078,0-0.131-0.037-0.16-0.109l-0.039-0.09c-0.021-0.047-0.053-0.113-0.092-0.207c-0.039-0.092-0.098-0.227-0.176-0.402
	c-0.01-0.016-0.02-0.021-0.031-0.021h-1.943c-0.02,0-0.028,0.006-0.032,0.021l-0.316,0.699c-0.014,0.031-0.032,0.055-0.057,0.076
	c-0.025,0.021-0.056,0.033-0.101,0.033h-0.563c-0.031,0-0.057-0.012-0.074-0.033s-0.018-0.049,0-0.082
	c0,0.004,0.004-0.002,0.008-0.016c0.01-0.016,0.029-0.064,0.066-0.148c0.035-0.082,0.092-0.211,0.176-0.389
	c0.078-0.176,0.191-0.426,0.346-0.748c0.146-0.324,0.338-0.732,0.566-1.229c0.229-0.494,0.51-1.104,0.846-1.826
	c0.018-0.035,0.043-0.051,0.078-0.051h0.063c0.031,0,0.05,0.006,0.062,0.016c0.011,0.012,0.021,0.023,0.027,0.035
	c0.014,0.024,0.039,0.078,0.073,0.16c0.035,0.08,0.097,0.209,0.177,0.387c0.082,0.176,0.192,0.424,0.342,0.748
	c0.146,0.322,0.334,0.732,0.562,1.227C118.746,82.583,119.026,83.192,119.356,83.915z M117.889,82.563
	c0.01,0,0.021-0.006,0.029-0.019c0.012-0.015,0.012-0.022,0.002-0.032l-0.643-1.423c-0.008-0.012-0.021-0.019-0.033-0.019
	c-0.018,0-0.029,0.007-0.037,0.019l-0.643,1.423c-0.01,0.01-0.01,0.02-0.002,0.032c0.002,0.013,0.014,0.019,0.03,0.019H117.889z"/>
<path d="M125.787,79.602c0.021,0.02,0.026,0.039,0.026,0.061v4.355c0,0.02-0.008,0.039-0.026,0.057
	c-0.017,0.018-0.037,0.025-0.058,0.025h-0.104c-0.067,0-0.125-0.025-0.179-0.076l-2.549-2.813c-0.006-0.01-0.018-0.015-0.039-0.015
	c-0.02,0.011-0.026,0.023-0.026,0.041l-0.006,2.709c0,0.021-0.011,0.041-0.027,0.062s-0.034,0.029-0.062,0.029h-0.59
	c-0.02,0-0.039-0.011-0.059-0.029c-0.021-0.021-0.029-0.039-0.029-0.062v-4.354c0-0.021,0.008-0.038,0.029-0.057
	c0.02-0.019,0.039-0.027,0.059-0.027h0.117c0.063,0,0.119,0.027,0.164,0.078l2.545,2.761c0.008,0.018,0.021,0.021,0.039,0.014
	c0.01-0.004,0.018-0.016,0.018-0.031l0.007-2.666c0-0.021,0.012-0.041,0.026-0.061c0.019-0.021,0.037-0.029,0.063-0.029h0.604
	C125.75,79.573,125.77,79.583,125.787,79.602z"/>
<path d="M132.58,79.602c0.019,0.02,0.028,0.039,0.028,0.061v4.355c0,0.02-0.012,0.039-0.028,0.057s-0.039,0.025-0.062,0.025h-0.104
	c-0.068,0-0.125-0.025-0.178-0.076l-2.551-2.813c-0.006-0.01-0.019-0.015-0.039-0.015c-0.019,0.011-0.025,0.023-0.025,0.041
	l-0.004,2.709c0,0.021-0.008,0.041-0.027,0.062c-0.018,0.021-0.039,0.029-0.063,0.029h-0.588c-0.021,0-0.043-0.011-0.062-0.029
	c-0.021-0.021-0.026-0.039-0.026-0.062v-4.354c0-0.021,0.008-0.038,0.026-0.057s0.039-0.027,0.062-0.027h0.115
	c0.063,0,0.118,0.027,0.166,0.078l2.543,2.761c0.01,0.018,0.021,0.021,0.039,0.014c0.014-0.004,0.018-0.016,0.018-0.031l0.006-2.666
	c0-0.021,0.012-0.041,0.027-0.061c0.018-0.021,0.037-0.029,0.063-0.029h0.602C132.541,79.573,132.561,79.583,132.58,79.602z"/>
<path d="M135.617,79.663c0-0.021,0.01-0.041,0.028-0.061c0.019-0.021,0.039-0.029,0.06-0.029h0.596c0.021,0,0.041,0.01,0.06,0.029
	c0.02,0.02,0.029,0.039,0.029,0.061v4.285c0,0.021-0.011,0.041-0.029,0.061s-0.037,0.029-0.06,0.029h-0.596
	c-0.021,0-0.041-0.01-0.06-0.029c-0.02-0.02-0.028-0.039-0.028-0.061V79.663z"/>
<path d="M143.188,79.602c0.021,0.02,0.029,0.039,0.029,0.061v4.355c0,0.02-0.01,0.039-0.029,0.057
	c-0.018,0.018-0.039,0.025-0.061,0.025h-0.104c-0.068,0-0.125-0.025-0.178-0.076l-2.55-2.813c-0.004-0.01-0.019-0.015-0.039-0.015
	c-0.016,0.011-0.026,0.023-0.026,0.041l-0.004,2.709c0,0.021-0.011,0.041-0.025,0.062c-0.018,0.021-0.041,0.029-0.064,0.029h-0.588
	c-0.021,0-0.039-0.011-0.061-0.029c-0.021-0.021-0.027-0.039-0.027-0.062v-4.354c0-0.021,0.008-0.038,0.027-0.057
	c0.021-0.019,0.039-0.027,0.061-0.027h0.115c0.064,0,0.119,0.027,0.166,0.078l2.543,2.761c0.008,0.018,0.021,0.021,0.041,0.014
	c0.012-0.004,0.018-0.016,0.018-0.031l0.004-2.666c0-0.021,0.013-0.041,0.027-0.061c0.018-0.021,0.039-0.029,0.064-0.029h0.6
	C143.149,79.573,143.17,79.583,143.188,79.602z"/>
<path d="M149.792,81.893c0.021,0.026,0.031,0.057,0.031,0.092v1.592c0,0.023-0.009,0.043-0.021,0.064
	c-0.012,0.021-0.021,0.037-0.029,0.045h-0.008c-0.008,0.004-0.055,0.026-0.137,0.069s-0.195,0.091-0.336,0.142
	c-0.139,0.051-0.305,0.096-0.49,0.137c-0.188,0.041-0.391,0.061-0.604,0.061c-0.32,0-0.617-0.061-0.894-0.18
	c-0.279-0.119-0.52-0.279-0.729-0.484c-0.209-0.201-0.371-0.445-0.49-0.723c-0.119-0.279-0.178-0.578-0.178-0.896
	c0-0.317,0.059-0.619,0.178-0.897c0.119-0.281,0.281-0.524,0.49-0.729c0.209-0.209,0.449-0.373,0.729-0.494
	c0.275-0.121,0.572-0.182,0.894-0.182c0.291,0,0.569,0.053,0.831,0.154c0.263,0.102,0.5,0.246,0.718,0.434
	c0.022,0.018,0.035,0.039,0.041,0.07c0.008,0.029-0.002,0.055-0.024,0.076l-0.056,0.051c-0.026,0.025-0.063,0.066-0.123,0.121
	c-0.053,0.055-0.129,0.135-0.228,0.236c-0.041,0.043-0.08,0.043-0.123,0c-0.145-0.123-0.301-0.217-0.471-0.279
	c-0.17-0.066-0.346-0.096-0.527-0.096c-0.204,0-0.397,0.039-0.577,0.121c-0.181,0.08-0.339,0.188-0.474,0.33
	c-0.133,0.141-0.235,0.303-0.313,0.487c-0.076,0.185-0.117,0.384-0.117,0.591c0,0.202,0.041,0.397,0.117,0.584
	c0.078,0.186,0.183,0.346,0.313,0.479c0.135,0.137,0.293,0.246,0.474,0.326c0.18,0.082,0.375,0.121,0.584,0.121
	c0.182,0,0.34-0.019,0.476-0.058c0.133-0.036,0.237-0.071,0.309-0.103c0.012-0.004,0.02-0.016,0.02-0.03v-0.543
	c0-0.024-0.01-0.037-0.033-0.037h-0.654c-0.047,0-0.086-0.017-0.106-0.045c-0.022-0.031-0.032-0.06-0.032-0.084v-0.433
	c0-0.035,0.01-0.063,0.032-0.092c0.021-0.024,0.058-0.037,0.095-0.037h1.358C149.739,81.856,149.77,81.868,149.792,81.893z"/>
<path d="M110.879,16.333c0.016,0.034,0.016,0.063-0.002,0.086c-0.02,0.025-0.041,0.037-0.078,0.037h-0.559
	c-0.08,0-0.131-0.038-0.16-0.109l-0.041-0.091c-0.021-0.044-0.053-0.114-0.092-0.206c-0.041-0.092-0.094-0.227-0.172-0.407
	c-0.012-0.012-0.021-0.017-0.037-0.017h-1.945c-0.016,0-0.025,0.005-0.029,0.017l-0.322,0.704c-0.008,0.028-0.024,0.056-0.049,0.076
	c-0.026,0.021-0.059,0.033-0.102,0.033h-0.561c-0.033,0-0.06-0.012-0.076-0.033c-0.014-0.02-0.014-0.047,0-0.083
	c0,0.005,0.004,0,0.008-0.016c0.01-0.016,0.029-0.062,0.066-0.146c0.033-0.083,0.096-0.213,0.172-0.389
	c0.084-0.177,0.197-0.427,0.348-0.749c0.148-0.323,0.334-0.732,0.566-1.226c0.229-0.497,0.514-1.106,0.852-1.83
	c0.016-0.033,0.037-0.046,0.076-0.046h0.063c0.031,0,0.049,0.001,0.063,0.013c0.006,0.01,0.019,0.023,0.024,0.033
	c0.012,0.026,0.037,0.08,0.074,0.16c0.035,0.082,0.092,0.209,0.174,0.384c0.082,0.179,0.195,0.429,0.342,0.751
	c0.148,0.324,0.332,0.731,0.563,1.226C110.272,15,110.551,15.61,110.879,16.333z M109.417,14.981c0.01,0,0.015-0.007,0.026-0.02
	c0.011-0.015,0.011-0.025,0.007-0.033l-0.646-1.42c-0.01-0.015-0.022-0.019-0.035-0.019c-0.02,0-0.026,0.004-0.035,0.019
	l-0.645,1.42c-0.01,0.007-0.01,0.018-0.004,0.033c0.004,0.012,0.02,0.02,0.035,0.02H109.417z"/>
<path d="M113.25,14.229c0-0.32,0.063-0.618,0.183-0.899c0.123-0.281,0.28-0.526,0.491-0.734c0.205-0.205,0.449-0.367,0.728-0.487
	c0.283-0.124,0.582-0.185,0.899-0.185c0.33,0,0.615,0.051,0.857,0.15c0.243,0.102,0.473,0.248,0.69,0.444
	c0.043,0.047,0.043,0.092,0,0.133l-0.393,0.409c-0.039,0.039-0.078,0.037-0.119-0.007c-0.135-0.122-0.295-0.216-0.471-0.283
	c-0.174-0.066-0.359-0.098-0.547-0.098c-0.215,0-0.41,0.042-0.59,0.122c-0.183,0.079-0.336,0.19-0.465,0.33
	c-0.132,0.14-0.232,0.302-0.308,0.492c-0.074,0.184-0.11,0.385-0.11,0.59c0,0.21,0.036,0.406,0.11,0.591
	c0.073,0.185,0.176,0.348,0.31,0.486c0.133,0.138,0.291,0.246,0.471,0.327c0.178,0.08,0.373,0.122,0.588,0.122
	c0.199,0,0.383-0.034,0.551-0.103c0.168-0.067,0.326-0.155,0.461-0.266c0.021-0.022,0.043-0.033,0.068-0.029
	c0.02,0.004,0.037,0.013,0.051,0.029v-0.006l0.406,0.414c0.016,0.021,0.021,0.042,0.016,0.067c0,0.024-0.01,0.042-0.029,0.06h0.008
	c-0.221,0.213-0.459,0.368-0.721,0.467c-0.27,0.1-0.549,0.15-0.836,0.15c-0.318,0-0.617-0.06-0.9-0.178
	c-0.276-0.119-0.521-0.28-0.727-0.488c-0.211-0.206-0.369-0.45-0.492-0.728C113.311,14.845,113.25,14.545,113.25,14.229z"/>
<path d="M123.819,16.333c0.009,0.034,0.009,0.063-0.012,0.086c-0.016,0.025-0.041,0.037-0.072,0.037h-0.563
	c-0.076,0-0.133-0.038-0.16-0.109l-0.039-0.091c-0.021-0.044-0.053-0.114-0.094-0.206c-0.039-0.092-0.102-0.227-0.174-0.407
	c-0.012-0.012-0.021-0.017-0.031-0.017h-1.947c-0.012,0-0.028,0.005-0.028,0.017l-0.318,0.704c-0.019,0.028-0.032,0.056-0.057,0.076
	c-0.021,0.021-0.058,0.033-0.101,0.033h-0.563c-0.027,0-0.056-0.012-0.072-0.033c-0.017-0.02-0.017-0.047,0-0.083
	c0,0.005,0,0,0.013-0.016c0.006-0.016,0.024-0.062,0.061-0.146c0.039-0.083,0.096-0.213,0.176-0.389
	c0.082-0.177,0.195-0.427,0.346-0.749c0.148-0.323,0.336-0.732,0.564-1.226c0.232-0.497,0.516-1.106,0.852-1.83
	c0.016-0.033,0.039-0.046,0.07-0.046h0.07c0.029,0,0.049,0.001,0.057,0.013c0.012,0.01,0.025,0.023,0.035,0.033
	c0.01,0.026,0.035,0.08,0.068,0.16c0.039,0.082,0.096,0.209,0.174,0.384c0.084,0.179,0.199,0.429,0.344,0.751
	c0.146,0.324,0.338,0.731,0.559,1.226C123.203,15,123.483,15.61,123.819,16.333z M122.35,14.981c0.002,0,0.017-0.007,0.027-0.02
	c0.014-0.015,0.014-0.025,0.004-0.033l-0.645-1.42c-0.008-0.015-0.023-0.019-0.037-0.019s-0.027,0.004-0.037,0.019l-0.641,1.42
	c-0.008,0.007-0.008,0.018-0.002,0.033c0.008,0.012,0.018,0.02,0.037,0.02H122.35z"/>
<path d="M128.119,11.992c0.309,0,0.596,0.057,0.866,0.173c0.271,0.118,0.511,0.276,0.716,0.479c0.204,0.202,0.366,0.438,0.481,0.708
	c0.117,0.269,0.178,0.559,0.178,0.864c0,0.31-0.061,0.601-0.178,0.872c-0.115,0.272-0.277,0.51-0.481,0.712
	c-0.205,0.202-0.443,0.361-0.716,0.479c-0.271,0.115-0.559,0.175-0.866,0.175h-1.396c-0.024,0-0.043-0.01-0.057-0.031
	c-0.02-0.018-0.025-0.038-0.025-0.059v-4.288c0-0.018,0.006-0.04,0.025-0.058c0.014-0.019,0.031-0.028,0.057-0.028h1.396V11.992z
	 M128.039,15.728c0.219,0,0.418-0.039,0.603-0.116c0.184-0.076,0.334-0.181,0.469-0.315c0.133-0.134,0.229-0.293,0.307-0.479
	c0.074-0.186,0.113-0.386,0.113-0.601c0-0.216-0.039-0.417-0.113-0.598c-0.076-0.184-0.174-0.341-0.307-0.479
	c-0.135-0.132-0.285-0.237-0.469-0.315c-0.185-0.076-0.384-0.113-0.603-0.113h-0.606c-0.027,0-0.037,0.012-0.037,0.037v2.94
	c0,0.024,0.01,0.039,0.037,0.039H128.039z"/>
<path d="M134.082,12.742v1.048c0,0.022,0.012,0.036,0.039,0.036h1.471c0.025,0,0.041,0.009,0.063,0.03
	c0.02,0.018,0.025,0.04,0.025,0.06v0.543c0,0.025-0.007,0.046-0.025,0.063c-0.021,0.016-0.037,0.024-0.063,0.024h-1.471
	c-0.027,0-0.039,0.014-0.039,0.041V15.7c0,0.028,0.012,0.04,0.039,0.04h1.784c0.023,0,0.05,0.01,0.063,0.033
	c0.021,0.021,0.023,0.042,0.023,0.062v0.531c0,0.021-0.005,0.041-0.023,0.059c-0.014,0.021-0.038,0.031-0.063,0.031h-2.5
	c-0.022,0-0.047-0.01-0.063-0.031c-0.018-0.018-0.022-0.038-0.022-0.059v-4.288c0-0.018,0.006-0.04,0.022-0.058
	s0.041-0.028,0.063-0.028h2.5c0.023,0,0.05,0.009,0.063,0.028c0.021,0.019,0.023,0.04,0.023,0.058v0.529
	c0,0.021-0.005,0.044-0.023,0.066c-0.014,0.021-0.038,0.031-0.063,0.031h-1.784C134.092,12.705,134.082,12.718,134.082,12.742z"/>
<path d="M143.338,16.456h-0.592c-0.023,0-0.043-0.01-0.059-0.027c-0.021-0.016-0.029-0.034-0.033-0.052l-0.383-2.433
	c0-0.018-0.008-0.03-0.027-0.032c-0.014-0.004-0.025,0.002-0.037,0.019l-1.15,2.538c-0.018,0.035-0.043,0.05-0.08,0.05h-0.113
	c-0.028,0-0.063-0.016-0.075-0.05c-0.006-0.004-0.013-0.011-0.013-0.019c-0.006-0.009-0.016-0.038-0.037-0.087
	c-0.024-0.047-0.057-0.123-0.1-0.222c-0.047-0.101-0.106-0.244-0.197-0.431c-0.082-0.187-0.188-0.424-0.315-0.712
	c-0.135-0.288-0.295-0.642-0.479-1.067c-0.01-0.017-0.021-0.023-0.035-0.019c-0.021,0.002-0.027,0.014-0.037,0.032l-0.391,2.44
	c-0.007,0.02-0.015,0.032-0.029,0.05c-0.019,0.013-0.035,0.022-0.055,0.022h-0.576c-0.025,0-0.049-0.012-0.068-0.037
	c-0.02-0.023-0.025-0.051-0.018-0.08l0.746-4.343c0.008-0.046,0.034-0.071,0.077-0.071h0.188c0.039,0,0.064,0.016,0.086,0.047
	l1.35,3.046c0.02,0.039,0.045,0.039,0.074,0c0.219-0.506,0.412-0.933,0.57-1.282c0.154-0.348,0.283-0.636,0.387-0.861
	c0.1-0.225,0.176-0.399,0.227-0.519c0.063-0.121,0.103-0.212,0.127-0.268c0.025-0.057,0.039-0.089,0.047-0.097
	c0.007-0.01,0.007-0.018,0.007-0.02c0.018-0.031,0.043-0.047,0.086-0.047h0.178c0.047,0,0.074,0.024,0.084,0.071
	c0.095,0.545,0.179,1.024,0.246,1.438c0.074,0.415,0.138,0.773,0.188,1.082c0.049,0.306,0.097,0.561,0.129,0.772
	c0.035,0.206,0.068,0.38,0.095,0.516l0.096,0.548C143.432,16.419,143.405,16.456,143.338,16.456z"/>
<path d="M146.981,14.307c0-0.014,0-0.02-0.006-0.02l-1.479-2.161c-0.02-0.031-0.014-0.06,0.002-0.091
	c0.014-0.031,0.037-0.042,0.072-0.042h0.664c0.016,0,0.027,0.003,0.041,0.013c0.02,0.014,0.024,0.021,0.035,0.029l1.024,1.486
	c0.022,0.027,0.045,0.027,0.063,0l1.029-1.486c0.004-0.008,0.02-0.016,0.032-0.029c0.017-0.01,0.031-0.013,0.049-0.013h0.666
	c0.031,0,0.058,0.012,0.07,0.042c0.012,0.032,0.017,0.06,0.004,0.091l-1.498,2.154c-0.006,0-0.006,0.007-0.006,0.019v2.067
	c0,0.021-0.015,0.041-0.031,0.059c-0.021,0.021-0.041,0.031-0.063,0.031h-0.584c-0.021,0-0.045-0.01-0.063-0.031
	c-0.017-0.018-0.022-0.038-0.022-0.059V14.307L146.981,14.307z"/>
<path d="M158.643,12.838c0.019-0.021,0.043-0.043,0.072-0.067c0.031-0.023,0.07-0.017,0.119,0.024
	c0.057,0.049,0.117,0.127,0.178,0.234c0.057,0.107,0.111,0.226,0.158,0.362c0.055,0.132,0.092,0.274,0.123,0.421
	c0.025,0.153,0.045,0.293,0.045,0.428c0,0.319-0.063,0.617-0.182,0.896c-0.119,0.279-0.279,0.521-0.488,0.726
	c-0.209,0.208-0.453,0.368-0.732,0.489c-0.278,0.117-0.576,0.177-0.891,0.177c-0.32,0-0.623-0.06-0.902-0.177
	c-0.272-0.121-0.52-0.281-0.723-0.489c-0.209-0.206-0.373-0.447-0.492-0.726c-0.115-0.279-0.178-0.578-0.178-0.896
	c0-0.316,0.063-0.62,0.178-0.9c0.119-0.279,0.283-0.524,0.492-0.729c0.203-0.206,0.449-0.369,0.723-0.49
	c0.279-0.121,0.582-0.182,0.902-0.182c0.367,0,0.701,0.078,1.014,0.236c0.066,0.03,0.082,0.084,0.055,0.157
	c-0.008,0.012-0.026,0.043-0.051,0.09c-0.023,0.047-0.049,0.096-0.078,0.151c-0.03,0.052-0.059,0.103-0.086,0.149
	c-0.026,0.046-0.049,0.075-0.053,0.09c-0.016,0.034-0.045,0.051-0.084,0.054c-0.037,0-0.074-0.006-0.113-0.023
	c-0.19-0.084-0.396-0.126-0.604-0.126c-0.215,0-0.408,0.039-0.59,0.12c-0.186,0.08-0.348,0.191-0.48,0.328
	c-0.141,0.139-0.252,0.299-0.324,0.486c-0.084,0.183-0.116,0.381-0.116,0.588c0,0.208,0.032,0.405,0.116,0.586
	c0.072,0.183,0.185,0.344,0.324,0.482c0.133,0.141,0.295,0.247,0.48,0.326c0.182,0.079,0.375,0.118,0.59,0.118
	c0.205,0,0.402-0.04,0.588-0.118c0.182-0.079,0.344-0.185,0.48-0.326c0.135-0.138,0.244-0.299,0.322-0.482
	c0.082-0.181,0.121-0.377,0.121-0.586c0-0.08-0.009-0.164-0.021-0.252c-0.021-0.087-0.041-0.169-0.068-0.252
	c-0.02-0.082-0.053-0.156-0.086-0.224c-0.035-0.067-0.068-0.12-0.105-0.158c-0.02-0.021-0.03-0.045-0.039-0.067
	c-0.002-0.023,0-0.045,0.013-0.058c0.006-0.02,0.017-0.036,0.026-0.053c0.068-0.056,0.121-0.107,0.173-0.152
	c0.034-0.039,0.079-0.076,0.116-0.116C158.602,12.871,158.633,12.848,158.643,12.838z"/>
<path d="M157.188,12.119c0-0.031,0-0.062,0.006-0.103c0.002-0.038,0.035-0.059,0.097-0.066c0.076-0.004,0.178,0.009,0.293,0.043
	c0.115,0.032,0.242,0.078,0.371,0.139c0.131,0.06,0.256,0.13,0.383,0.214c0.127,0.088,0.238,0.174,0.334,0.272
	c0.228,0.227,0.396,0.48,0.506,0.761c0.117,0.28,0.171,0.565,0.169,0.86c0,0.294-0.06,0.578-0.175,0.863
	c-0.112,0.279-0.278,0.532-0.506,0.758c-0.226,0.225-0.479,0.395-0.758,0.507c-0.281,0.111-0.568,0.169-0.859,0.169
	c-0.293,0-0.58-0.058-0.862-0.169c-0.279-0.112-0.531-0.282-0.759-0.506c-0.227-0.227-0.395-0.479-0.51-0.763
	c-0.112-0.283-0.172-0.571-0.172-0.86c0-0.294,0.06-0.581,0.17-0.864c0.11-0.28,0.276-0.536,0.506-0.759
	c0.256-0.26,0.556-0.445,0.888-0.555c0.067-0.021,0.114,0.006,0.147,0.076c0.006,0.016,0.012,0.051,0.028,0.097
	c0.017,0.05,0.037,0.104,0.052,0.162c0.016,0.059,0.028,0.114,0.041,0.167c0.014,0.054,0.022,0.086,0.028,0.103
	c0.011,0.035,0.002,0.066-0.018,0.097c-0.031,0.028-0.063,0.051-0.104,0.064c-0.191,0.078-0.365,0.188-0.514,0.339
	c-0.15,0.146-0.261,0.314-0.332,0.5c-0.072,0.188-0.105,0.379-0.105,0.575c0,0.193,0.033,0.385,0.107,0.571
	c0.077,0.188,0.188,0.354,0.338,0.5c0.146,0.149,0.313,0.26,0.496,0.332c0.186,0.074,0.375,0.112,0.573,0.112
	c0.188,0,0.384-0.038,0.565-0.112c0.188-0.072,0.355-0.182,0.498-0.332c0.15-0.146,0.261-0.313,0.334-0.5
	c0.078-0.186,0.111-0.375,0.111-0.569c-0.002-0.194-0.037-0.384-0.111-0.571c-0.073-0.186-0.182-0.353-0.327-0.499
	c-0.058-0.06-0.123-0.111-0.195-0.161c-0.073-0.049-0.151-0.095-0.228-0.134c-0.071-0.04-0.146-0.07-0.221-0.094
	c-0.063-0.024-0.131-0.035-0.182-0.041c-0.031,0-0.059-0.006-0.076-0.019c-0.018-0.014-0.031-0.03-0.039-0.047
	c-0.002-0.02-0.01-0.037-0.012-0.059c0.004-0.087,0.012-0.161,0.012-0.227c0-0.056,0-0.112,0-0.167
	C157.18,12.166,157.186,12.133,157.188,12.119z"/>
<path d="M164.936,12.02c0.019,0.019,0.027,0.04,0.027,0.058v0.529c0,0.021-0.01,0.044-0.027,0.066
	c-0.016,0.021-0.035,0.031-0.063,0.031h-1.783c-0.026,0-0.043,0.014-0.043,0.038v1.201c0,0.025,0.017,0.039,0.043,0.039h1.474
	c0.021,0,0.039,0.01,0.057,0.03c0.021,0.022,0.031,0.042,0.031,0.063v0.531c0,0.021-0.01,0.043-0.031,0.061
	c-0.018,0.02-0.035,0.027-0.057,0.027h-1.474c-0.026,0-0.043,0.013-0.043,0.039v1.633c0,0.021-0.008,0.041-0.026,0.059
	c-0.019,0.021-0.041,0.031-0.06,0.031h-0.584c-0.026,0-0.047-0.01-0.065-0.031c-0.017-0.018-0.027-0.038-0.027-0.059v-4.288
	c0-0.018,0.012-0.04,0.027-0.058c0.02-0.019,0.039-0.028,0.065-0.028h2.496C164.901,11.992,164.92,12,164.936,12.02z"/>
<path d="M72.852,27.025l-2.776,16.218h-3.691l-2.697-9.702l-3.01,9.702h-3.695l-2.774-16.218h3.51l1.545,8.736l2.459-8.736h3.695
	l2.462,8.736l1.465-8.736H72.852z"/>
<path d="M94.208,43.245h-13.04V27.025h12.805v3.234h-9.349v2.655h5.291v3.233h-5.291v3.862h9.584V43.245z"/>
<path d="M117.506,35.136c0,2.461-0.791,4.427-2.371,5.9c-1.58,1.472-3.678,2.208-6.297,2.208h-5.473V27.025h5.473
	c2.637,0,4.74,0.741,6.311,2.222C116.721,30.727,117.506,32.689,117.506,35.136z M114.078,35.136c0-1.53-0.453-2.723-1.351-3.585
	c-0.897-0.859-2.133-1.29-3.707-1.29h-2.199v9.75h2.199c1.574,0,2.81-0.43,3.707-1.291
	C113.625,37.859,114.078,36.664,114.078,35.136z"/>
<path d="M140.621,35.136c0,2.461-0.793,4.427-2.371,5.9c-1.582,1.472-3.681,2.208-6.297,2.208h-5.476V27.025h5.476
	c2.633,0,4.737,0.741,6.31,2.222C139.833,30.727,140.621,32.689,140.621,35.136z M137.188,35.136c0-1.53-0.449-2.723-1.35-3.585
	c-0.898-0.859-2.135-1.29-3.707-1.29h-2.195v9.75h2.195c1.572,0,2.809-0.43,3.707-1.291
	C136.739,37.859,137.188,36.664,137.188,35.136z"/>
<path d="M153.674,43.245h-3.51V27.025h3.51V43.245z"/>
<path d="M177.545,43.245h-3.01l-7.674-10.378v10.378h-3.455V27.025h3.455l7.256,9.92v-9.92h3.428V43.245z"/>
<path d="M201.26,35.279c0,2.558-0.637,4.574-1.91,6.045c-1.274,1.473-3.049,2.209-5.317,2.209c-2.427,0-4.304-0.805-5.63-2.414
	c-1.327-1.609-1.989-3.604-1.989-5.984c0-2.495,0.715-4.504,2.146-6.034c1.433-1.528,3.301-2.293,5.604-2.293
	c1.397,0,2.674,0.31,3.825,0.929c1.152,0.619,2.033,1.475,2.644,2.57l-3.09,1.545c-0.769-1.222-1.937-1.834-3.51-1.834
	c-1.255,0-2.255,0.462-2.998,1.388c-0.742,0.924-1.109,2.168-1.109,3.728c0,1.592,0.367,2.852,1.109,3.777
	c0.743,0.925,1.76,1.395,3.051,1.411c1.59-0.032,2.603-0.667,3.039-1.906h-3.092v-3.138L201.26,35.279L201.26,35.279z"/>
<path d="M88.689,68.12H75.65V51.901h12.805v3.233h-9.349v2.654h5.289v3.233h-5.289v3.861h9.583V68.12z"/>
<path d="M112.565,51.901l-6.104,16.219h-3.691l-6.338-16.219h3.692l4.479,11.393l4.32-11.393H112.565z"/>
<path d="M133.344,68.12h-13.039V51.901h12.803v3.233h-9.346v2.654h5.289v3.233h-5.289v3.861h9.582V68.12L133.344,68.12z"/>
<path d="M156.77,68.12h-3.01l-7.674-10.379V68.12h-3.457V51.901h3.457l7.254,9.92v-9.92h3.43V68.12z"/>
<path d="M179.045,55.134h-4.791v12.984h-3.404V55.134h-4.846v-3.233h13.041V55.134z"/>
<path d="M91.327,12.08c0-0.021,0.008-0.042,0.024-0.061c0.017-0.018,0.037-0.029,0.057-0.029h0.606c0.025,0,0.047,0.011,0.064,0.029
	c0.017,0.02,0.023,0.04,0.023,0.061v2.645c0,0.141,0.025,0.274,0.07,0.399c0.049,0.125,0.116,0.234,0.202,0.328
	c0.089,0.093,0.19,0.167,0.31,0.219c0.118,0.056,0.253,0.081,0.4,0.081c0.146,0,0.278-0.025,0.4-0.081
	c0.121-0.052,0.224-0.126,0.308-0.219c0.087-0.094,0.154-0.202,0.2-0.326c0.051-0.122,0.074-0.255,0.074-0.394V12.08
	c0-0.021,0.008-0.042,0.025-0.061c0.018-0.018,0.04-0.029,0.066-0.029h0.591c0.021,0,0.044,0.011,0.064,0.029
	c0.021,0.02,0.032,0.04,0.032,0.061v2.69c0,0.243-0.045,0.468-0.135,0.679c-0.09,0.21-0.211,0.396-0.37,0.556
	c-0.158,0.159-0.344,0.283-0.56,0.375c-0.213,0.092-0.447,0.138-0.697,0.138c-0.249,0-0.481-0.046-0.698-0.138
	c-0.214-0.091-0.4-0.215-0.556-0.375c-0.159-0.16-0.283-0.346-0.371-0.556c-0.09-0.211-0.133-0.437-0.133-0.679v-2.69H91.327z"/>
<path d="M97.868,12.11c0-0.034,0.012-0.062,0.036-0.086c0.022-0.023,0.048-0.035,0.085-0.035h0.556c0.035,0,0.063,0.012,0.087,0.035
	c0.028,0.024,0.04,0.052,0.04,0.086v1.638c0,0.036,0.013,0.058,0.04,0.071c0.027,0.013,0.054,0.006,0.08-0.018l1.555-1.762h0.008
	c0.025-0.034,0.059-0.05,0.102-0.05h0.645c0.043,0,0.074,0.019,0.092,0.059c0.018,0.037,0.014,0.074-0.014,0.107l-1.609,1.831
	c-0.043,0.045-0.061,0.084-0.055,0.114c0.002,0.03,0.02,0.063,0.051,0.096c0.008,0.012,0.053,0.071,0.141,0.175
	s0.193,0.232,0.316,0.382c0.125,0.152,0.258,0.313,0.4,0.485c0.145,0.173,0.279,0.333,0.408,0.486
	c0.121,0.15,0.23,0.279,0.318,0.385c0.086,0.106,0.135,0.166,0.148,0.177c0.021,0.036,0.021,0.071,0.006,0.11
	c-0.016,0.037-0.047,0.057-0.096,0.057h-0.701c-0.051,0-0.084-0.01-0.096-0.033l-0.205-0.247c-0.049-0.064-0.113-0.144-0.195-0.239
	c-0.076-0.096-0.172-0.213-0.283-0.355c-0.115-0.14-0.247-0.304-0.4-0.494c-0.153-0.188-0.331-0.409-0.527-0.66
	c-0.022-0.025-0.05-0.034-0.084-0.025c-0.028,0.008-0.045,0.031-0.045,0.069v1.863c0,0.034-0.012,0.063-0.04,0.086
	c-0.024,0.023-0.052,0.035-0.087,0.035h-0.556c-0.037,0-0.063-0.012-0.085-0.035c-0.024-0.023-0.036-0.052-0.036-0.086V12.11z"/>
<path d="M103.524,16.015c0-0.137,0.045-0.256,0.146-0.357c0.1-0.103,0.215-0.154,0.354-0.154c0.064,0,0.131,0.015,0.193,0.042
	c0.064,0.028,0.117,0.065,0.164,0.113c0.043,0.045,0.08,0.1,0.109,0.162c0.025,0.062,0.041,0.127,0.041,0.196
	c0,0.135-0.051,0.253-0.15,0.353s-0.221,0.151-0.357,0.151c-0.139,0-0.254-0.051-0.354-0.151
	C103.569,16.268,103.524,16.149,103.524,16.015z"/>
</svg>
