<?xml version="1.0" encoding="utf-8"?>
<!-- Generator: Adobe Illustrator 19.0.0, SVG Export Plug-In . SVG Version: 6.00 Build 0)  -->
<svg version="1.1" id="Layer_1" xmlns="http://www.w3.org/2000/svg" xmlns:xlink="http://www.w3.org/1999/xlink" x="0px" y="0px"
	 viewBox="0 0 72 49.6" style="enable-background:new 0 0 72 49.6;" xml:space="preserve">
<style type="text/css">
	.st0{fill:#FFFFFF;}
</style>
<g>
	<path class="st0" d="M63.8,22.1c4-0.3,6.8-2.2,7.8-4.7c-1.5,0.9-6,1.9-8.5,0.9c-0.1-0.6-0.3-1.1-0.4-1.6c-1.9-7-8.4-12.6-15.3-12
		c0.6-0.2,1.1-0.4,1.7-0.6c0.8-0.3,5.2-1,4.5-2.5c-0.6-1.4-6,1-7,1.3C48,2.4,50.2,1.5,50.5,0c-2,0.3-4.1,1.3-5.6,2.7
		c0.6-0.6,1-1.3,1.1-2.1C40.5,4,37.3,11.1,34.7,17.9c-2-2-3.8-3.5-5.5-4.4c-4.5-2.4-10-5-18.5-8.1c-0.3,2.8,1.4,6.6,6.2,9.1
		c-1-0.1-2.9,0.2-4.4,0.5c0.6,3.2,2.6,5.9,8.1,7.2c-2.5,0.2-3.8,0.7-4.9,1.9c1.1,2.2,3.9,4.9,8.9,4.3c-5.5,2.4-2.3,6.8,2.2,6.1
		C19,42.5,6.9,41.9,0,35.3C18.1,60,57.5,49.9,63.4,26.1c4.4,0,7-1.5,8.6-3.2C69.5,23.3,65.8,22.9,63.8,22.1z"/>
</g>
</svg>
